<svg width="1005" height="752" viewBox="0 0 1005 752" fill="none" xmlns="http://www.w3.org/2000/svg">
<path d="M180.874 107.71L185.958 107.184L203.109 109.054L204.182 108.643L369.207 106.776L504.396 104.908V440.121L324.455 529.76L313.266 727.713L94.1662 538.164L182.739 293.524L180.874 107.71Z" fill="#262626"/>
<path d="M823.257 107.71L818.173 107.184L801.022 109.054L799.949 108.643L634.924 106.776L499.735 104.908V440.121L679.677 529.76L690.865 727.713L909.965 538.164L821.393 293.524L823.257 107.71Z" fill="#262626"/>
<path d="M836.791 435.533L691.622 674.731L683.949 528.931L504.402 546.969L323.912 528.92L316.238 674.731L171.07 435.533L347.401 399.051L504.384 427.082L660.447 399.048L836.791 435.533ZM504.396 453.604L347.763 425.634L212.574 453.604L294.62 588.794L299.281 500.221L504.396 520.733L708.579 500.221L713.241 588.794L795.287 453.604L660.097 425.634L504.396 453.604Z" fill="#262626"/>
<path d="M319.423 172.951L479.223 224.499L490.619 439.728L376.58 400.118L198.781 433.508L179.118 481.594L248.396 603.897L208.587 636.496L40.7367 491.089L12.3148 276.195L12.2602 275.543C12.2239 275.099 10.5016 253.906 11.4972 229.088C11.994 216.705 13.1913 202.727 15.8457 189.651C18.3628 177.252 22.7806 162.51 31.6664 151.096C57.6891 117.67 97.4768 114.372 104.668 114.039L185.963 107.188L319.423 172.951ZM106.341 140.095C106.231 140.098 72.7434 140.829 52.2653 167.133C31.7601 193.473 38.2761 273.37 38.2802 273.42L65.3181 477.845L225.681 616.764L150.161 483.439L179.996 410.474L378.585 373.181L462.496 402.325L454.105 243.827L309.592 197.21L180.928 133.811L106.341 140.095ZM191.073 295.913C193.772 293.318 197.979 293.126 200.903 295.465L216.481 307.929C218.146 309.261 219.162 311.243 219.271 313.372L220.628 339.826C220.82 343.575 218.195 346.883 214.5 347.549L182.531 353.303C178.162 354.089 174.077 350.91 173.768 346.481L171.793 318.163C171.639 315.959 172.471 313.8 174.063 312.269L191.073 295.913ZM157.649 266.304C159.401 266.239 161.122 266.793 162.506 267.87L178.867 280.595C182.408 283.349 182.733 288.585 179.561 291.757L162.256 309.062C161.032 310.286 159.42 311.047 157.696 311.213L119.738 314.862C115.472 315.272 111.739 312.011 111.571 307.729L110.309 275.538C110.147 271.415 113.363 267.944 117.486 267.791L157.649 266.304ZM205.361 219.725C209.382 219.648 212.741 222.773 212.952 226.79L214.269 251.792C214.377 253.849 213.63 255.86 212.206 257.346L197.567 272.621C194.957 275.344 190.724 275.689 187.706 273.426L169.598 259.845C167.877 258.553 166.797 256.581 166.636 254.435L164.682 228.382C164.362 224.112 167.695 220.45 171.976 220.368L205.361 219.725ZM261.988 293.072C261.987 296.881 259.117 300.078 255.33 300.487L230.588 303.162C228.606 303.376 226.622 302.788 225.076 301.529L208.72 288.203C205.295 285.412 205.033 280.27 208.158 277.146L220.79 264.514C222.102 263.202 223.857 262.426 225.71 262.338L254.174 260.981C258.428 260.778 261.988 264.174 261.988 268.432V293.072Z" fill="#262626"/>
<path d="M899.529 114.035C906.602 114.357 946.5 117.601 972.576 151.096C981.462 162.51 985.881 177.253 988.398 189.653C991.053 202.73 992.248 216.709 992.745 229.092C993.74 253.907 992.018 275.098 991.982 275.543L991.927 276.195L963.505 491.089L795.655 636.496L755.846 603.897L825.122 481.594L805.459 433.508L627.66 400.118L513.625 439.728L525.019 224.499L684.817 172.951L818.279 107.188L899.529 114.035ZM694.651 197.21L550.138 243.827L541.747 402.325L625.657 373.181L824.246 410.474L854.081 483.439L778.561 616.764L938.924 477.845L965.962 273.42C965.965 273.378 972.483 193.474 951.977 167.133C931.493 140.821 897.992 140.097 897.901 140.095L823.314 133.811L694.651 197.21ZM784.563 311.812C790.485 301.556 804.534 298.582 815.942 305.169C827.351 311.756 831.799 325.408 825.878 335.665C819.956 345.921 805.907 348.896 794.499 342.31C783.09 335.723 778.642 322.068 784.563 311.812ZM807.54 319.72C807.424 319.702 807.194 319.689 806.838 319.764C806.102 319.92 804.598 320.577 803.487 322.261L803.27 322.612C802.147 324.558 802.339 326.364 802.587 327.128C802.699 327.472 802.824 327.664 802.899 327.756C803.015 327.775 803.244 327.79 803.602 327.714C804.387 327.548 806.047 326.811 807.171 324.865C808.294 322.919 808.102 321.113 807.854 320.35C807.741 320.004 807.614 319.812 807.54 319.72ZM848.973 290.763C855.073 278.909 870.521 274.703 883.479 281.37C896.437 288.038 901.996 303.053 895.896 314.907C889.797 326.761 874.348 330.965 861.39 324.298C848.433 317.631 842.874 302.617 848.973 290.763ZM756.456 249.507C761.49 237.986 774.91 232.725 786.432 237.758C797.953 242.792 803.212 256.214 798.179 267.735C793.145 279.256 779.725 284.515 768.204 279.482C756.682 274.449 751.423 261.028 756.456 249.507ZM774.257 257.284C773.565 258.867 774.198 260.696 775.673 261.527L775.981 261.68C777.674 262.42 779.64 261.645 780.377 259.958L774.257 257.284ZM778.334 255.438C776.722 254.921 774.949 255.7 774.257 257.284L780.377 259.958C781.115 258.268 780.346 256.299 778.654 255.56L778.334 255.438ZM819.277 229.016C822.742 216.085 836.524 208.543 850.06 212.17C863.597 215.797 871.764 229.22 868.299 242.152C864.834 255.083 851.051 262.627 837.514 259C823.977 255.372 815.812 241.947 819.277 229.016ZM844.151 233.885C844.034 233.949 843.829 234.088 843.609 234.362C843.374 234.653 843.184 235.021 843.084 235.393V235.396C842.984 235.769 842.964 236.184 843.022 236.554C843.077 236.902 843.184 237.124 843.253 237.239C843.276 237.276 843.3 237.304 843.319 237.328C843.348 237.317 843.386 237.306 843.425 237.285C843.543 237.22 843.745 237.079 843.965 236.806C844.201 236.514 844.39 236.145 844.49 235.773L843.785 235.584L843.787 235.582L844.494 235.771C844.593 235.399 844.611 234.985 844.554 234.615C844.499 234.268 844.394 234.045 844.324 233.93C844.301 233.891 844.275 233.862 844.255 233.837C844.226 233.849 844.19 233.863 844.151 233.885Z" fill="#262626"/>
<path d="M679.932 40.0251L802.695 109.066L703.477 133.867L704.183 134.097L550.737 190.36L503.497 215.161L487.221 207.533L454.66 190.349L301.244 134.097L301.949 133.867L202.733 109.066L325.498 40.0233L502.841 11.3338L679.932 40.0251ZM335.699 64.8178L263.909 97.4497L308.661 108.638L348.752 88.1263L460.633 101.179L439.189 117.029L381.384 135.676L465.295 166.443L498.859 184.157L502.838 186.022L540.133 166.443L624.044 135.676L566.239 117.029L544.795 101.179L656.676 88.1263L696.767 108.638L741.519 97.4497L669.729 64.8178L502.838 37.7799L335.699 64.8178ZM341.767 121.024L358.685 115.567L353.594 114.973L341.767 121.024ZM646.741 115.567L663.659 121.024L651.832 114.973L646.741 115.567Z" fill="#262626"/>
<path d="M684.304 29.3997L805.49 97.3113L815.141 96.2588L816.121 95.7781L818.057 95.942L818.142 95.9328L819.013 96.0221L819.218 96.0403L900.323 102.874C908.876 103.301 952.499 107.095 981.404 144.223C991.898 157.703 996.738 174.502 999.362 187.428C1002.18 201.311 1003.41 215.941 1003.92 228.644C1004.95 254.12 1003.18 275.827 1003.13 276.454L1003.13 276.478L1003.08 277.129L1003.05 277.397L1003.02 277.663L974.04 496.765L922.912 541.057L923.105 541.59L680.979 751.059L669.142 541.661L504.404 558.214L335.009 541.273L327.119 680.868L325.503 711.562L325.394 711.382L323.153 751.059L81.026 541.59L81.2445 540.984L30.2025 496.765L1.22338 277.663L1.18879 277.397L1.16511 277.129L1.11048 276.478L1.10866 276.454C1.0576 275.828 -0.703708 254.118 0.318358 228.64C0.828016 215.937 2.06385 201.308 4.88173 187.426C7.50548 174.501 12.3446 157.703 22.8384 144.223C51.6426 107.225 95.0614 103.331 103.821 102.882L184.625 96.0731L184.809 96.0549L185.989 95.9328L186.12 95.9456L188.121 95.7781L189.13 96.2752L199.765 97.4352L321.126 29.3979L502.843 0L684.304 29.3997ZM325.498 40.0233L202.797 109.018L185.958 107.184L185.74 107.207L104.668 114.039L102.949 114.143C92.5574 114.902 56.0627 119.759 31.6664 151.096L30.8471 152.176C22.507 163.429 18.2842 177.639 15.8457 189.651L15.3651 192.113C13.0446 204.469 11.9629 217.479 11.4972 229.088L11.4118 231.405C10.6077 255.21 12.225 275.113 12.2602 275.543L12.3148 276.195L40.7367 491.089L94.3829 537.562L94.1662 538.164L313.266 727.713L324.455 529.76L325.766 529.104L504.402 546.969L679.008 529.426L679.677 529.76L690.865 727.713L909.965 538.164L909.774 537.635L963.505 491.089L991.927 276.195L991.982 275.543C992.018 275.098 993.74 253.907 992.745 229.092C992.248 216.709 991.053 202.73 988.398 189.653C985.881 177.253 981.462 162.51 972.576 151.096C946.5 117.601 906.602 114.357 899.529 114.035L818.279 107.188L818.266 107.194L818.173 107.184L802.456 108.896L679.932 40.0251L502.841 11.3338L325.498 40.0233ZM504.396 453.604L520.864 450.645L635.181 507.594L504.396 520.733L369.628 507.256L484.471 450.046L504.396 453.604ZM897.901 140.095C897.992 140.097 931.493 140.821 951.977 167.133C972.483 193.474 965.965 273.378 965.962 273.42L938.924 477.845L900.254 511.342L821.393 293.524L821.857 247.222C825.14 252.778 830.632 257.156 837.514 259C851.051 262.627 864.834 255.083 868.299 242.152C871.764 229.22 863.597 215.797 850.06 212.17C838.969 209.198 827.716 213.725 822.105 222.569L822.993 133.968L823.314 133.811L897.901 140.095ZM181.136 133.913L182.001 220.173L171.976 220.368C167.695 220.45 164.362 224.112 164.682 228.382L166.636 254.435L166.676 254.835C166.933 256.825 167.984 258.634 169.598 259.845L182.496 269.518L182.739 293.524L176.959 309.483L174.063 312.269C172.471 313.8 171.639 315.959 171.793 318.163L172.119 322.852L103.901 511.269L65.3181 477.845L38.2802 273.42C38.2761 273.371 31.8614 194.715 51.7902 167.76L52.2653 167.133C71.4634 142.473 102.096 140.288 105.941 140.11L106.341 140.095L180.928 133.811L181.136 133.913ZM409.321 499.981L504.391 509.488L595.515 500.334L519.19 462.312L504.402 464.971L486.148 461.709L409.321 499.981ZM833.506 201.371C839.69 199.7 846.396 199.605 852.956 201.362C871.989 206.462 884.294 225.685 879.107 245.047C873.919 264.408 853.652 274.907 834.618 269.807C834.014 269.645 833.416 269.467 832.825 269.277L832.601 291.615L835.327 299.147C835.582 294.604 836.768 290.03 839.025 285.644C848.371 267.482 870.997 262.366 888.598 271.422C906.198 280.479 915.19 301.863 905.844 320.026C896.498 338.19 873.871 343.302 856.272 334.246C851.863 331.978 847.995 328.935 844.82 325.364L905.232 492.227L928.388 472.167L954.825 272.295C954.992 270.114 956.33 251.723 955.482 230.587C955.028 219.27 953.958 207.463 951.849 197.074C949.682 186.394 946.664 178.521 943.149 174.006C926.186 152.216 897.825 151.288 897.664 151.282L897.313 151.274L896.961 151.243L834.061 145.942L833.506 201.371ZM107.281 151.243L106.929 151.274L106.578 151.282C106.338 151.291 78.0328 152.247 61.0936 174.006C57.5785 178.521 54.5607 186.393 52.3929 197.072C50.2841 207.461 49.214 219.267 48.7601 230.583C47.9121 251.721 49.2484 270.113 49.4156 272.295L75.8526 472.167L98.9244 492.154L160.494 322.097C160.188 322.155 159.881 322.212 159.572 322.255L158.767 322.35L120.809 325.999C110.144 327.024 100.812 318.872 100.392 308.168L99.1302 275.977C98.7261 265.672 106.762 256.993 117.07 256.611L155.471 255.187L153.525 229.219C152.751 218.898 160.516 209.999 170.702 209.232L170.068 145.952L107.281 151.243ZM883.479 281.37C870.521 274.703 855.073 278.909 848.973 290.763C842.874 302.617 848.433 317.631 861.39 324.298C874.348 330.965 889.797 326.761 895.896 314.907C901.996 303.053 896.437 288.038 883.479 281.37ZM157.649 266.304L117.486 267.791C113.363 267.944 110.147 271.415 110.309 275.538L111.571 307.729C111.734 311.877 115.242 315.067 119.339 314.889L119.738 314.862L157.696 311.213C159.312 311.057 160.829 310.379 162.021 309.286L162.256 309.062L179.561 291.757C182.733 288.585 182.408 283.349 178.867 280.595L162.506 267.87C161.122 266.793 159.401 266.239 157.649 266.304ZM844.324 233.93C844.394 234.045 844.499 234.268 844.554 234.615C844.611 234.985 844.593 235.399 844.494 235.771L843.787 235.582L843.785 235.584L844.49 235.773C844.39 236.145 844.201 236.514 843.965 236.806C843.745 237.079 843.543 237.22 843.425 237.285C843.386 237.306 843.348 237.317 843.319 237.328C843.3 237.304 843.276 237.276 843.253 237.239C843.184 237.124 843.077 236.902 843.022 236.554C842.964 236.184 842.984 235.769 843.084 235.396V235.393C843.184 235.021 843.374 234.653 843.609 234.362C843.829 234.088 844.034 233.949 844.151 233.885C844.19 233.863 844.226 233.849 844.255 233.837C844.275 233.862 844.301 233.891 844.324 233.93ZM669.729 64.8178L741.519 97.4497L701.212 107.525L694.445 107.449L656.676 88.1263L544.795 101.179L550.793 105.613L504.396 104.972V104.908L502.066 104.939L499.735 104.908V104.972L454.656 105.595L460.633 101.179L348.752 88.1263L311.012 107.434L304.16 107.512L263.909 97.4497L335.699 64.8178L502.838 37.7799L669.729 64.8178ZM340.071 75.4432L290.127 92.4712L305.474 96.308L308.257 96.2752L346.678 76.6195L490.051 93.3471L489.732 93.5801L502.066 93.7513L515.585 93.5656V93.9371L516.187 93.9462L515.377 93.3471L658.75 76.6195L697.198 96.2916L699.895 96.3207L715.299 92.4712L665.355 75.4432L502.834 49.1118L340.071 75.4432Z" fill="#262626"/>
<path d="M347.76 425.634L504.393 453.605L660.094 425.634L795.284 453.605L713.238 588.794L708.576 500.222L504.393 520.733L299.278 500.222L294.616 588.794L212.57 453.605L347.76 425.634Z" fill="white"/>
<path d="M309.595 197.21L454.108 243.827L462.499 402.325L378.589 373.18L180 410.474L150.165 483.439L225.685 616.763L65.3218 477.845L38.2839 273.42C38.2798 273.37 31.7639 193.472 52.269 167.133C72.7471 140.828 106.235 140.097 106.345 140.095L180.932 133.811L309.595 197.21ZM200.907 295.464C197.982 293.125 193.776 293.317 191.077 295.912L174.067 312.268C172.475 313.8 171.643 315.959 171.796 318.163L173.772 346.481C174.081 350.909 178.166 354.089 182.535 353.302L214.504 347.548C218.199 346.883 220.824 343.575 220.631 339.825L219.275 313.372C219.166 311.242 218.15 309.261 216.485 307.929L200.907 295.464ZM157.653 266.303L117.489 267.791C113.366 267.944 110.151 271.415 110.313 275.537L111.575 307.729C111.743 312.011 115.476 315.272 119.742 314.861L157.7 311.212C159.424 311.046 161.036 310.286 162.26 309.062L179.565 291.757C182.737 288.585 182.412 283.349 178.871 280.594L162.509 267.869C161.125 266.793 159.405 266.238 157.653 266.303ZM254.177 260.98L225.714 262.337C223.86 262.425 222.105 263.201 220.793 264.513L208.161 277.145C205.037 280.27 205.298 285.411 208.724 288.202L225.08 301.528C226.626 302.787 228.61 303.376 230.592 303.162L255.334 300.487C259.121 300.077 261.991 296.881 261.991 293.072V268.432C261.991 264.173 258.431 260.778 254.177 260.98ZM171.98 220.367C167.699 220.45 164.365 224.111 164.685 228.381L166.639 254.434C166.8 256.58 167.88 258.553 169.602 259.844L187.71 273.425C190.727 275.688 194.96 275.343 197.57 272.62L212.209 257.346C213.634 255.859 214.381 253.848 214.273 251.792L212.956 226.79C212.744 222.773 209.386 219.647 205.364 219.724L171.98 220.367Z" fill="white"/>
<path d="M897.901 140.095C897.991 140.097 931.493 140.821 951.976 167.133C972.483 193.474 965.965 273.378 965.962 273.42L938.924 477.845L778.561 616.763L854.081 483.439L824.246 410.474L625.657 373.18L541.746 402.325L550.137 243.827L694.65 197.21L823.313 133.811L897.901 140.095ZM815.942 305.168C804.533 298.582 790.485 301.555 784.563 311.811C778.641 322.068 783.09 335.722 794.498 342.309C805.907 348.896 819.956 345.921 825.877 335.664C831.798 325.408 827.35 311.755 815.942 305.168ZM883.478 281.37C870.521 274.703 855.072 278.908 848.973 290.763C842.873 302.617 848.432 317.63 861.39 324.298C874.348 330.965 889.796 326.761 895.896 314.907C901.995 303.053 896.436 288.037 883.478 281.37ZM786.431 237.758C774.91 232.724 761.49 237.985 756.456 249.506C751.423 261.028 756.682 274.448 768.203 279.482C779.724 284.515 793.145 279.255 798.178 267.734C803.212 256.213 797.953 242.791 786.431 237.758ZM850.06 212.169C836.523 208.542 822.742 216.084 819.276 229.015C815.811 241.947 823.976 255.372 837.513 258.999C851.05 262.626 864.834 255.083 868.299 242.152C871.764 229.22 863.597 215.796 850.06 212.169Z" fill="white"/>
<path d="M335.704 64.8182L502.843 37.7803L669.734 64.8182L741.524 116.097L696.772 127.285L656.681 106.774L544.8 119.826L566.244 135.676L624.049 154.323L540.139 185.09L502.843 204.669L498.864 202.805L465.3 185.09L381.389 154.323L439.194 135.676L460.638 119.826L348.757 106.774L308.666 127.285L263.914 116.097L335.704 64.8182Z" fill="white"/>
</svg>
