<?xml version="1.0" encoding="UTF-8"?>
<svg xmlns="http://www.w3.org/2000/svg" xmlns:xlink="http://www.w3.org/1999/xlink" version="1.1" viewBox="0 0 1230 1238">
  <defs>
    <style>
      .cls-1 {
        fill: url(#linear-gradient-8);
      }

      .cls-2 {
        fill: url(#linear-gradient-7);
      }

      .cls-3 {
        fill: url(#linear-gradient-5);
      }

      .cls-4 {
        fill: url(#linear-gradient-6);
      }

      .cls-5 {
        fill: url(#linear-gradient-9);
      }

      .cls-6 {
        fill: url(#linear-gradient-4);
      }

      .cls-7 {
        fill: url(#linear-gradient-3);
      }

      .cls-8 {
        fill: url(#linear-gradient-2);
      }

      .cls-9 {
        fill: url(#linear-gradient);
      }

      .cls-10 {
        fill: url(#linear-gradient-10);
      }

      .cls-11 {
        fill: url(#linear-gradient-11);
      }

      .cls-12 {
        fill: url(#linear-gradient-12);
      }

      .cls-13 {
        fill: url(#linear-gradient-13);
      }
    </style>
    <linearGradient id="linear-gradient" x1="617.3" y1="1075" x2="617.3" y2="379.4" gradientTransform="translate(0 -228)" gradientUnits="userSpaceOnUse">
      <stop offset="0" stop-color="#333"/>
      <stop offset="1" stop-color="#d41c5c"/>
    </linearGradient>
    <linearGradient id="linear-gradient-2" x1="298.1" x2="298.1" y2="379.4" xlink:href="#linear-gradient"/>
    <linearGradient id="linear-gradient-3" x1="935.9" x2="935.9" y2="379.4" xlink:href="#linear-gradient"/>
    <linearGradient id="linear-gradient-4" x1="400.9" y1="1075" x2="400.9" y2="379.4" xlink:href="#linear-gradient"/>
    <linearGradient id="linear-gradient-5" x1="833" y1="1075" x2="833" y2="379.4" xlink:href="#linear-gradient"/>
    <linearGradient id="linear-gradient-6" x1="500.9" y1="1075" x2="500.9" y2="379.4" xlink:href="#linear-gradient"/>
    <linearGradient id="linear-gradient-7" x1="529.4" y1="1075" x2="529.4" y2="379.4" xlink:href="#linear-gradient"/>
    <linearGradient id="linear-gradient-8" x1="515.1" y1="1075" x2="515.1" y2="379.4" xlink:href="#linear-gradient"/>
    <linearGradient id="linear-gradient-9" x1="517.3" y1="1075" x2="517.3" y2="379.4" xlink:href="#linear-gradient"/>
    <linearGradient id="linear-gradient-10" x1="704" y1="1075" x2="704" y2="379.4" xlink:href="#linear-gradient"/>
    <linearGradient id="linear-gradient-11" x1="734.6" y1="1075" x2="734.6" y2="379.4" xlink:href="#linear-gradient"/>
    <linearGradient id="linear-gradient-12" x1="725.2" y1="1075" x2="725.2" y2="379.4" xlink:href="#linear-gradient"/>
    <linearGradient id="linear-gradient-13" x1="712.3" y1="1075" x2="712.3" y2="379.4" xlink:href="#linear-gradient"/>
  </defs>
  <!-- Generator: Adobe Illustrator 28.6.0, SVG Export Plug-In . SVG Version: 1.2.0 Build 709)  -->
  <g>
    <g id="Layer_1">
      <g>
        <path class="cls-9" d="M846.5,496.2l40.8,68.9,119.7,6.7-194.4-192.4,113.2,93.7-50.8-93.1,42.1-94.5-94.5-21.9-52.8,2.2,2.2-36.4,18.7-85.7-125.1,125.1,34.3-55.9-82.1,22.3h-1.2l-82.1-22.3,34.3,55.9-125.1-125.1,18.7,85.7,2.2,36.4-52.8-2.2-94.5,21.9,42.1,94.5-50.8,93.1,113.2-93.7-194.4,192.4,119.7-6.7,40.8-68.9-102.4,234.7,108.5-56.3-6.1,109.1,92.4-61-15.8,74.6,49.6-32.1,35.4,123.5,13.8-40.8,53.8,80.3,53.8-80.3,13.8,40.8,35.4-123.5,49.6,32.1-15.8-74.6,92.4,61-6.1-109.1,108.7,56.3-102.4-234.7h-.2ZM377.6,357l-21.9-43.9,38.8-12.4h26.2l-42.9,56.1h-.2v.2ZM831.7,297.1l39,11.6-21.1,44.1-43.9-55.3,26.2-.4h-.2ZM665.5,380.4l61-32.7,26.6-36-9.6,52.2-85.1,33.7-29.9-19.7,37.2,2.8h-.2v-.2ZM611.7,427.5h1.6c0,.2,1,.2,1,.2h2.6c0-.2,51.6,8.1,51.6,8.1l23,16.3-14.2,3.5-12.8-6.5-36,4.1,6.9,5.1,18.5,5.9-27,9.8-10.8,5.9h-2.4l-11-5.5-27.2-9.3,18.3-6.3,6.7-5.1-36.2-3.5-12.6,6.7-14.2-3.2,22.6-16.7,51.4-9.1h0v-.6h.2ZM617.1,588.8h-2.8l-52.2-6.1,11,28.8-33.7-43.1,35.1-9.6,39.6,8.1h1.4c0-.2,1-.2,1-.2,0,.2.4.2.4.2l39.4-8.9,35.1,9.1-32.9,43.7,10.6-28.9-52,6.9h0v.2ZM657.2,677.8l-4.1,41.6-35.1-2.6h-2.4l-34.9,3.2-4.9-41.6,13,25.4,26.6-4.7h2.4l26.6,4.1,12.6-25.6h.2v.2ZM503.6,347.7l59.5,32.7,33.3-2.8-26,19.7-82.9-33.7-9.5-52.2,25.8,36h-.2v.2ZM402,530.5c1.8-4.1,17.1-27,24.8-34.5,8.3-8.1,16.3-12.8,16.5-12.8-4.3,5.1-6.7,16-10.8,20.1-11,10.4-21.9,15.8-30.5,27.2ZM430.2,538.6c6.7-10.8,13.8-18.5,14-18.5-3.3,6.5-4.3,17.7-7.9,23.2-9.1,14.2-18.7,23.4-25.4,38,1.2-4.9,13.2-32.9,19.3-42.7h0ZM442.8,578.2c-8.1,15.6-16.9,26.2-22.8,41.9,1-5.1,11-34.7,16.5-45.7,5.7-11.2,12-19.9,12.4-20.3-2.8,6.9-3.2,18.1-6.1,24h0ZM480.8,396.4s13.2-5.3,15.6-4.7,69.3,22.1,69.3,22.1c0,0-52,1.4-55.9,1.8s-58.5,3-58.5,3l29.5-22.1ZM476.1,578l-10-66v-19.3c0-14,7.5-22.6,21.3-24l24.2-2.6,41.6,19.9,46.9,14.2,3.3,51.2-27.2-8.9-63.4,13.4-9.5,23.8,25,42.3-51.8-43.9h-.4v-.2ZM536.7,613.4c-8.9-12.8-18.3-26.4-17.9-30.1,0-1,5.7-9.3,6.5-9.8,1.2-1.2,7.3,4.3,7.9,4.9.8.8,10,9.3,10.8,10.8,1.8,4.1,19.1,41.9,20.5,43.9,2.8,3.5,9.1,8.9,8.7,8.9-2.6,0-7.1-3-9.8-4.3-15-6.7-16.1-9.3-26.6-24.4h0v.2ZM556.8,666c1.6-1.6,3.3-4.7,5.5-5.5.2,0-1.6,5.1-1.4,8.3,0,1.8,11.6,32.5,13,35.8.4,1.2-1.6,9.6-1.8,10.4,0,.6-1.6,5.9-3.3,5.5-1-.2-11.6-4.7-12.4-5.3-2.8-2.4-4.3-14.2-5.5-25.6-1.4-13.2-2.4-15.4,6.1-23.6h-.2ZM647.8,833.6l1.6-50.6-11.4,24.6-18.5,46.7h-3l-19.3-46.3-11.8-24.4,2.4,50.6-36.6-48.1v-60.7l24.8,12.4,39.6-9.3h1.2c0,.2,1.2,0,1.2,0l39.8,8.5,24.6-12.8,1,60.7-35.8,48.8h.4v-.2ZM670.4,659.7c2.2.8,4.1,3.7,5.7,5.3,8.5,8.3,7.7,10.4,6.5,23.6-1,11.2-2.4,23-5.1,25.6-.8.8-11.4,5.3-12.4,5.5-1.8.6-3.3-4.7-3.5-5.5-.2-.8-2.4-9.1-2-10.2,1.2-3.3,12.2-34.3,12.4-36,0-3.2-1.8-8.5-1.6-8.3ZM668.8,636.8c-2.8,1.2-7.3,4.1-9.8,4.3-.4,0,5.9-5.3,8.5-8.9,1.4-2,17.9-40.2,19.7-44.3.6-1.6,9.8-10.2,10.6-11s6.7-6.3,7.9-5.1,6.5,8.9,6.5,9.8c.4,3.5-8.7,17.3-17.3,30.3-10.2,15.4-11.2,17.9-26.2,24.8h.2ZM755.1,575.4l-51,44.9,24.2-42.7-9.8-23.8-63.6-12.2-27.2,9.3,2.4-51.2,46.5-15,41.4-20.5,24.2,2.2c13.8,1.2,21.5,9.8,21.7,23.6v19.3c.2,0-8.7,66.2-8.7,66.2h0ZM718.5,413.7c-3.7-.2-55.9-.8-55.9-.8,0,0,66.4-22.6,68.9-23.2,2.4-.6,15.8,4.3,15.8,4.3l29.9,21.7s-54.7-1.6-58.7-2h0ZM788.4,587.4c-3.2-5.9-3.5-17.1-6.5-24,.4.6,6.9,8.9,12.8,20.1,5.7,10.8,16.1,40.4,17.3,45.3-6.1-15.6-15.2-26-23.4-41.6h-.2v.2ZM794.1,552.6c-3.5-5.5-4.7-16.7-8.3-23.2,0,0,7.3,7.7,14.2,18.3,6.5,9.8,18.7,37.6,20.1,42.5-7.1-14.4-16.7-23.4-26.2-37.6h.2ZM797.4,512.6c-4.3-3.9-6.9-14.8-11.2-19.9,0,0,8.5,4.7,16.7,12.6,7.7,7.3,23.4,29.7,25.4,33.9-8.9-11.4-19.7-16.5-30.9-26.8h0v.2Z"/>
        <polygon class="cls-8" points="333.1 342 248.2 417.5 303.9 461.2 348 380 333.1 342"/>
        <polygon class="cls-7" points="885.9 380 930 461.2 985.9 417.5 900.8 342 885.9 380"/>
        <polygon class="cls-6" points="454.8 228.2 450.1 205.6 346.7 218.2 398.5 257.2 455.2 257.8 454.8 228.2"/>
        <polygon class="cls-3" points="779.1 228.2 778.7 257.8 835.4 257.2 887.2 218.2 783.9 205.6 779.1 228.2"/>
        <path class="cls-4" d="M507.4,521.8c1.8-1.8,3.3-3.5,4.9-5.1,1.2-1.4,1-2.8-.4-3.9-1.8-1.2-3.3-2.6-5.1-3.7-.8-.6-1.6-.8-2.8-.8-1.8,0-3.7.2-5.5.4-2,0-3.9.2-6.1.4-1.4,0-2.4.6-3.2,1.6-.4.6-.6,1.4-.4,2.2,0,2.2.4,4.3.6,6.5,0,1,0,2,.2,2.8.2,1.6,2,2.6,3.9,2.4,4.1-.6,7.9-1,11.8-1.6.8,0,1.6-.4,2-1h0Z"/>
        <path class="cls-2" d="M521.1,515.9c1.6,1.2,3.2,2.4,4.5,3.5.6.4,1.4.6,2.2.6,1.4-.2,3-.4,4.3-.6,1.4,0,2.8-.4,4.1-.6.8,0,1.6-.6,2-1.4.4-.6.4-1.2.2-1.6,0-1.8-.2-3.5-.4-5.5v-2c-.2-1.2-1.4-2.2-2.6-2.2-2.8,0-5.5.4-8.5.6-.8,0-1.6.4-2.2,1-1.4,1.4-2.6,2.8-3.9,4.3-1.2,1.2-1,2.8.4,3.9h-.2v-.2Z"/>
        <path class="cls-1" d="M507.8,504.7c0,.8.4,1.4,1,1.8,1.8,1.4,3.7,2.8,5.5,4.1,1.4,1,3,.8,4.1-.4,1.6-1.6,3-3,4.3-4.5.6-.6.6-1.2.6-2-.2-2.8-.4-5.7-.8-8.5,0-.8-.6-1.6-1.4-2.2-.6-.4-1.2-.4-2-.4h-9.5c-1.6,0-2.8,1.4-2.8,2.8s.2,3.2.4,4.7c0,1.6.2,3.2.4,4.7h0v-.2Z"/>
        <path class="cls-5" d="M524.9,523.4c0-.6-.4-1.2-.8-1.6-1.6-1.2-3.3-2.6-5.1-3.7-1.4-1-3-.8-4.1.4-1.6,1.6-3.2,3.3-4.7,5.1-.6.6-.8,1.4-.8,2.2.2,3.2.6,6.1.8,9.3,0,.8.4,1.2,1,1.8.8.6,1.8.6,2.8.4,2.2-.4,4.3-.8,6.3-1.4,1,0,2-.4,2.8-.6,1.4-.4,2.6-1.8,2.4-3.2,0-1.4-.2-3-.4-4.3,0-1.4-.2-2.8-.4-4.3h.4Z"/>
        <path class="cls-10" d="M710.6,508.2c.4-1,.6-1.8.6-2.8,0-2.8-1.8-5.5-4.5-6.9-1-.4-2-.6-3-.6-2.8,0-5.3,1.6-6.3,4.1-1.6,3.5,0,7.7,3.7,9.5,1,.6,2.2.8,3.2.8,2.8,0,5.3-1.6,6.3-4.1Z"/>
        <path class="cls-11" d="M737.8,512.4c-1.2-.6-2.6-.8-3.7-.8-3,0-5.9,1.6-7.1,4.1-1.8,3.7.2,8.3,4.3,10.2,1.4.6,2.8,1,3.9,1,3,0,5.7-1.6,7.1-4.1.4-1,.6-2,.6-3,0-3.2-2-6.1-5.3-7.5h.2Z"/>
        <path class="cls-12" d="M732.7,500.6c.4-1,.6-2,.6-3,0-3-2-5.9-5.1-7.1-4.1-1.6-8.7,0-10.4,3.9-.4,1-.6,2-.6,2.8,0,3,1.8,5.7,4.7,7.1,1.2.4,2.4.8,3.3.8,3,0,5.9-1.6,7.1-4.3h.4v-.2Z"/>
        <path class="cls-13" d="M715.1,519.5c-3.9-1.8-8.3-.4-9.8,3.2-.4.8-.6,1.8-.6,2.8,0,2.8,1.8,5.7,4.5,7.1,1.2.6,2.6,1,3.7,1,2.6,0,5.1-1.4,6.3-3.9.4-1,.6-2,.6-2.8,0-3-1.8-5.9-4.7-7.3Z"/>
      </g>
    </g>
  </g>
</svg>