<svg width="537" height="541" viewBox="0 0 537 541" fill="none" xmlns="http://www.w3.org/2000/svg">
<g clip-path="url(#clip0_466_2)">
<path d="M446.558 296.007L537.052 301.046L459.101 223.694L491.287 240.837L481.491 222.863L519.43 194.083L457.287 138.86L473.095 103.379L415.979 90.184L457.65 58.7547L379.44 49.144L390.117 0L320.044 70.3394L331.446 51.5857L268.578 68.677L205.657 51.5857L217.06 70.3394L146.987 0L157.664 49.0921L79.4538 58.7027L121.124 90.132L64.0088 103.327L79.7648 138.809L17.6219 194.031L55.6125 222.811L45.8168 240.785L77.8989 223.694L0 301.046L89.1977 296.059H90.4934L40.4784 410.919L117.133 371.126L111.847 445.257L172.072 405.464L161.706 455.076L197.935 431.543L223.383 520.324L233.904 489.155L268.578 541.052L303.251 489.155L313.773 520.324L339.221 431.543L375.449 455.076L365.083 405.464L425.309 445.309L419.711 371.022L496.625 410.971L446.61 296.059L446.558 296.007ZM507.924 193.771L477.708 217.564L451.327 168.835L458.686 149.926L507.924 193.719V193.771ZM379.906 68.3133L382.342 56.8845L438.577 63.7937L412.403 83.5345L379.699 83.7942L379.906 68.2614V68.3133ZM154.709 56.9364L157.094 68.1055L157.301 83.8981L124.597 83.6384L98.4232 63.8976L154.709 56.9884V56.9364ZM29.1279 193.771L78.3654 149.978L85.7251 168.887L59.3442 217.616L29.0761 193.823L29.1279 193.771ZM407.687 309.981L416.757 430.868L354.147 389.464L364.565 439.283L334.815 419.958L313.151 495.596L305.376 472.583L268.526 527.753L231.676 472.583L223.901 495.596L202.237 419.958L172.487 439.283L182.904 389.464L120.243 430.868L128.899 309.514L113.194 364.84L55.5088 394.763L120.399 245.668L114.127 242.499L86.8654 288.786L18.9694 292.578L143.048 169.459L138.28 164.16L75.774 215.901L101.274 169.147L74.3227 108.522L132.319 95.1192L170.984 96.6257L169.222 67.9497L159.478 22.9616L255.465 119.38L221.465 63.534L267.334 76.0018L268.059 76.1577H268.63H269.148L315.535 63.534L281.483 119.38L377.522 22.9616L367.727 68.1575L366.016 96.6257L404.681 95.1192L462.677 108.522L435.726 169.147L461.226 215.901L398.772 164.16L394.004 169.459L518.082 292.578L450.238 288.786L422.976 242.499L416.705 245.668L481.595 394.763L423.702 364.684L407.739 309.93L407.687 309.981Z" fill="white"/>
<path d="M94.7954 124.522L109.359 153.718L137.917 116.366H120.554L94.7954 124.522Z" fill="white"/>
<path d="M437.074 121.561L411.211 113.769L393.848 114.081L423.08 150.965L437.074 121.561Z" fill="white"/>
<path d="M352.437 158.237L358.967 123.483L341.346 147.536L300.815 169.303L276.041 167.484L295.892 180.628L352.437 158.237Z" fill="white"/>
<path d="M215.712 217.927L225.145 220.057L233.593 215.59L257.642 218.031L253.133 221.46L240.953 225.668L258.938 231.85L266.297 235.642L267.852 235.59L275.108 231.746L292.989 225.2L280.706 221.2L276.093 217.823L300.09 215.018L308.642 219.33L318.023 217.044L302.785 206.135L268.526 200.68H268.474L267.438 200.836L266.712 200.732L266.038 200.836H265.987L265.002 200.68H264.95L230.795 206.758L215.712 217.927Z" fill="white"/>
<path d="M317.971 293.721L294.596 287.643L268.474 293.461H268.215L267.489 293.358L266.815 293.513H266.556L240.331 288.111L217.06 294.604L239.45 323.28L232.038 304.111L266.66 308.111H266.919L267.645 308.059L268.318 308.111H268.578L303.148 303.488L296.099 322.813L317.971 293.721Z" fill="white"/>
<path d="M268.319 381.775L267.489 381.671L249.867 384.788L241.16 367.853L244.374 395.542L267.593 393.464L268.422 393.516L269.251 393.412L292.471 395.126L295.218 367.385L286.821 384.477L269.148 381.619L268.319 381.775Z" fill="white"/>
<path d="M237.429 180.628L254.739 167.484L232.608 169.303L193.115 147.536L176.011 123.483L182.283 158.237L237.429 180.628Z" fill="white"/>
<path d="M153.103 237.824C152.688 238.032 147.453 241.2 142.167 246.343C137.088 251.279 126.877 266.448 125.633 269.253C131.386 261.565 138.591 258.032 145.847 251.123C148.645 248.421 150.252 241.252 153.103 237.824Z" fill="white"/>
<path d="M153.673 262.344C153.362 262.655 148.801 267.695 144.447 274.656C140.249 281.357 132.423 299.955 131.542 303.176C136.051 293.461 142.426 287.331 148.438 277.825C150.771 274.136 151.392 266.707 153.621 262.344H153.673Z" fill="white"/>
<path d="M137.606 328.839C141.493 318.397 147.402 311.332 152.74 300.942C154.813 296.942 154.917 289.514 156.835 284.89C156.524 285.254 152.377 290.916 148.542 298.449C144.862 305.722 138.228 325.463 137.606 328.839Z" fill="white"/>
<path d="M234.422 191.641C234.422 191.641 190.005 177.303 188.398 176.939C186.791 176.576 178.032 180.056 178.032 180.056L158.389 194.81C158.389 194.81 194.773 193.043 197.313 192.836C199.852 192.628 234.422 191.641 234.422 191.641Z" fill="white"/>
<path d="M198.972 285.981L241.16 277.097L259.3 282.968L257.072 248.889L225.974 239.486L198.298 226.291L182.231 228.057C173.161 229.044 168.03 234.863 168.081 244.11V256.889L174.871 300.838L209.285 330.138L192.7 301.877L199.023 285.981H198.972ZM206.176 272.318C205.554 272.474 204.932 272.578 204.258 272.734C202.859 272.993 201.459 273.305 200.008 273.617C199.749 273.617 199.542 273.669 199.282 273.669C198.868 273.669 198.505 273.565 198.194 273.357C197.779 273.097 197.572 272.734 197.52 272.214C197.365 270.136 197.209 268.11 197.054 266.032C197.054 265.721 197.054 265.357 197.209 265.045C198.401 263.85 199.542 262.656 200.578 261.461C200.734 261.253 200.889 261.097 200.993 260.889C201.356 260.63 201.77 260.474 202.185 260.474C202.444 260.474 202.651 260.474 202.911 260.629C203.066 260.837 203.273 260.993 203.532 261.149C204.517 261.928 205.554 262.707 206.539 263.487C206.539 263.487 206.901 263.746 207.109 263.85C207.109 263.85 207.212 264.214 207.264 264.37C207.316 265.305 207.42 266.292 207.471 267.227C207.523 268.214 207.627 269.149 207.679 270.136C207.731 271.019 207.057 271.954 206.124 272.214L206.176 272.318ZM207.42 254.292C207.42 254.292 207.731 253.876 207.938 253.616C208.145 253.512 208.404 253.46 208.612 253.46C210.581 253.357 212.447 253.201 214.261 253.097H214.365C215.194 253.097 215.816 253.668 215.971 254.499C216.023 254.967 216.023 255.383 216.127 255.85L216.386 259.487C216.438 259.85 216.386 260.214 216.231 260.578C215.971 261.097 215.505 261.409 214.935 261.461C214.002 261.565 213.069 261.72 212.136 261.824C211.203 261.928 210.27 262.084 209.285 262.188C209.182 262.188 209.078 262.188 208.974 262.188C208.819 262.188 208.664 262.188 208.56 262.136C208.404 261.928 208.249 261.824 208.093 261.668C206.746 260.629 205.657 259.85 204.621 259.123C204.517 259.071 204.414 258.967 204.31 258.915C204.051 258.5 203.999 258.084 204.154 257.616C204.258 257.513 204.362 257.409 204.465 257.305C205.346 256.422 206.228 255.487 207.005 254.603L207.368 254.188L207.42 254.292ZM197.261 244.11C197.52 244.11 197.831 244.11 198.09 244.11C198.453 244.11 198.816 244.11 199.179 244.11C200.63 244.11 202.081 244.11 203.481 244.11C203.947 244.11 204.414 244.162 204.828 244.421C205.398 244.785 205.709 245.253 205.761 245.824C205.917 247.746 206.072 249.616 206.228 251.538C206.228 251.746 206.228 251.954 206.228 252.162C206.02 252.318 205.865 252.473 205.709 252.629C204.88 253.512 204.103 254.396 203.273 255.279L203.066 255.487C203.066 255.487 202.651 255.954 202.548 256.214C202.237 256.422 201.926 256.474 201.563 256.474C201.252 256.474 200.941 256.422 200.63 256.266C200.423 256.058 200.215 255.902 200.008 255.746C199.127 255.071 198.194 254.396 197.261 253.668L196.587 253.201C196.587 253.201 196.432 253.097 196.328 253.045C196.121 252.785 196.017 252.473 195.965 252.162C195.914 251.123 195.81 250.084 195.706 249.097C195.603 248.058 195.551 247.019 195.447 245.98C195.395 244.993 196.173 244.214 197.261 244.162V244.11ZM186.17 265.253C185.03 265.253 184.097 264.63 183.941 263.694C183.837 263.071 183.786 262.448 183.734 261.824C183.63 260.37 183.526 258.915 183.371 257.461C183.371 256.993 183.371 256.526 183.682 256.058C184.148 255.435 184.822 255.071 185.703 254.967C187.051 254.863 188.398 254.759 189.746 254.707C190.99 254.603 192.234 254.551 193.426 254.448C193.529 254.448 193.581 254.448 193.685 254.448C194.151 254.448 194.514 254.551 194.877 254.759C194.877 254.759 195.084 254.967 195.188 255.019C196.432 256.006 197.728 256.993 198.972 257.876C199.023 257.876 199.075 257.928 199.127 257.98C199.49 258.448 199.542 259.019 199.282 259.539C199.179 259.591 199.127 259.694 199.023 259.746C198.09 260.681 197.157 261.72 196.276 262.707L195.862 263.175C195.862 263.175 195.551 263.487 195.447 263.694C195.136 263.954 194.722 264.11 194.255 264.162C191.715 264.474 189.124 264.837 186.429 265.201C186.273 265.201 186.17 265.201 186.014 265.201L186.17 265.253Z" fill="white"/>
<path d="M239.45 343.541C239.45 343.541 235.459 340.06 233.697 337.67C232.712 336.372 221.31 311.176 220.066 308.423C219.599 307.384 213.432 301.669 212.862 301.202C212.343 300.734 208.404 297.098 207.575 297.877C207.108 298.293 203.377 303.799 203.273 304.475C203.066 306.864 209.233 315.904 215.194 324.475C222.191 334.553 222.916 336.32 232.867 340.683C234.733 341.515 237.688 343.437 239.45 343.541Z" fill="white"/>
<path d="M236.392 395.906C237.636 396.217 238.517 392.685 238.673 392.217C238.828 391.698 240.176 386.139 239.865 385.308C239.035 383.074 231.313 362.554 231.261 361.411C231.157 359.333 232.349 355.801 232.142 355.853C230.743 356.372 229.499 358.45 228.462 359.489C222.917 365.048 223.487 366.45 224.42 375.282C225.249 382.762 226.234 390.659 228.099 392.269C228.618 392.737 235.718 395.646 236.392 395.802V395.906Z" fill="white"/>
<path d="M295.736 406.659L269.303 400.997L268.474 401.204L267.697 400.997L241.316 407.179L224.834 398.919V439.387L249.194 471.44L247.639 437.725L255.413 453.933L268.215 484.791H270.236L282.468 453.725L290.035 437.361L288.998 471.076L312.84 438.608L312.114 398.191L295.736 406.659Z" fill="white"/>
<path d="M298.172 391.698C298.328 392.165 299.261 395.698 300.505 395.334C301.178 395.127 308.227 392.113 308.745 391.646C310.559 389.984 311.389 382.087 312.114 374.607C312.944 365.775 313.462 364.373 307.812 358.918C306.776 357.879 305.48 355.853 304.081 355.385C303.925 355.333 305.169 358.814 305.066 360.892C305.066 362.035 297.706 382.659 296.877 384.893C296.566 385.724 298.017 391.23 298.172 391.75V391.698Z" fill="white"/>
<path d="M327.559 296.787C326.73 296.059 322.791 299.748 322.324 300.215C321.754 300.735 315.69 306.553 315.224 307.592C314.032 310.345 303.044 335.748 302.111 337.047C300.349 339.437 296.203 343.021 296.462 342.969C298.172 342.866 301.126 340.891 302.94 340.008C312.84 335.437 313.514 333.722 320.355 323.488C326.16 314.813 332.172 305.67 331.913 303.28C331.861 302.605 327.974 297.15 327.559 296.735V296.787Z" fill="white"/>
<path d="M351.608 226.551L335.541 225.044L308.123 238.707L277.233 248.681L275.575 282.76L293.559 276.578L335.904 284.682L342.486 300.475L326.367 328.995L360.315 299.124L366.275 255.071L366.12 242.292C366.016 232.993 360.782 227.33 351.711 226.499L351.608 226.551ZM324.346 256.682C321.962 255.539 320.821 252.733 321.806 250.344C322.532 248.629 324.242 247.59 326.056 247.59C326.73 247.59 327.404 247.746 328.077 248.006C329.943 248.837 331.084 250.655 331.084 252.578C331.084 253.201 330.98 253.824 330.669 254.448C329.943 256.162 328.233 257.201 326.471 257.201C325.745 257.201 325.02 257.045 324.346 256.682ZM336.526 268.682C335.8 270.344 334.141 271.227 332.379 271.227C331.55 271.227 330.721 271.02 329.891 270.604C328.026 269.617 326.885 267.747 326.885 265.825C326.885 265.201 326.989 264.578 327.248 264.006C327.974 262.344 329.632 261.409 331.446 261.409C332.224 261.409 333.001 261.565 333.779 261.98C335.748 262.915 336.94 264.838 336.94 266.812C336.94 267.487 336.785 268.11 336.526 268.682ZM338.34 251.798C336.318 250.915 335.126 249.045 335.126 247.123C335.126 246.499 335.23 245.824 335.541 245.253C336.37 243.383 338.288 242.24 340.361 242.24C341.035 242.24 341.76 242.395 342.434 242.655C344.507 243.486 345.803 245.409 345.803 247.435C345.803 248.11 345.647 248.733 345.388 249.357C344.559 251.227 342.641 252.318 340.672 252.318C339.894 252.318 339.117 252.162 338.391 251.85L338.34 251.798ZM351.815 264.162C350.986 265.929 349.12 266.916 347.151 266.916C346.269 266.916 345.337 266.708 344.455 266.292C341.708 264.941 340.413 261.928 341.553 259.435C342.382 257.669 344.248 256.63 346.269 256.63C347.047 256.63 347.928 256.785 348.757 257.149C350.934 258.084 352.282 260.162 352.282 262.188C352.282 262.864 352.126 263.539 351.815 264.162Z" fill="white"/>
<path d="M344.611 175.485C343.004 175.9 298.846 190.966 298.846 190.966C298.846 190.966 333.467 191.329 335.955 191.485C338.443 191.641 374.931 192.784 374.931 192.784L355.028 178.394C355.028 178.394 346.217 175.069 344.611 175.485Z" fill="white"/>
<path d="M377.989 291.228C379.958 295.851 380.269 303.28 382.342 307.228C387.888 317.514 393.9 324.475 397.995 334.865C397.269 331.488 390.324 311.851 386.489 304.682C382.55 297.202 378.248 291.591 377.989 291.279V291.228Z" fill="white"/>
<path d="M380.788 268.63C383.068 272.942 383.846 280.423 386.23 284.059C392.449 293.462 398.928 299.488 403.592 309.099C402.711 305.878 394.471 287.384 390.221 280.786C385.608 273.669 380.788 268.578 380.736 268.578L380.788 268.63Z" fill="white"/>
<path d="M380.943 244.11C383.845 247.539 385.556 254.656 388.406 257.305C395.818 264.11 403.074 267.487 408.931 275.072C407.635 272.318 397.217 257.305 392.034 252.474C386.696 247.435 381.306 244.318 380.943 244.11Z" fill="white"/>
</g>
<defs>
<clipPath id="clip0_466_2">
<rect width="537" height="541" fill="white"/>
</clipPath>
</defs>
</svg>
